<?xml version="1.0" standalone="no"?>
<!DOCTYPE svg PUBLIC "-//W3C//DTD SVG 20010904//EN"
 "http://www.w3.org/TR/2001/REC-SVG-20010904/DTD/svg10.dtd">
<svg version="1.0" xmlns="http://www.w3.org/2000/svg"
 width="348.000000pt" height="268.000000pt" viewBox="0 0 348.000000 268.000000"
 preserveAspectRatio="xMidYMid meet">

<g transform="translate(0.000000,268.000000) scale(0.100000,-0.100000)"
fill="#000000" stroke="none">
<path d="M963 2158 c2 -7 79 -131 171 -276 l166 -263 0 -214 0 -215 75 0 75 0
0 218 0 217 168 270 168 270 -65 3 c-35 2 -70 1 -76 -2 -7 -2 -70 -99 -140
-215 -71 -116 -131 -211 -134 -211 -3 0 -64 97 -136 215 l-130 215 -74 0 c-54
0 -72 -3 -68 -12z"/>
<path d="M2305 1906 c-149 -145 -432 -431 -630 -635 -198 -204 -365 -371 -371
-371 -7 0 -14 -10 -18 -22 l-6 -23 -14 21 c-11 16 -26 21 -56 21 -22 0 -40 -4
-40 -9 0 -5 5 -6 10 -3 6 4 10 -10 10 -34 0 -23 4 -41 9 -41 4 0 6 11 3 25 -4
24 12 55 29 55 5 0 13 -9 19 -20 9 -17 -9 -40 -157 -195 -92 -97 -169 -180
-171 -185 -5 -13 126 -114 218 -170 302 -181 684 -214 1022 -86 391 147 682
507 748 926 26 170 5 393 -55 569 -46 136 -164 330 -252 413 l-28 27 -270
-263z m245 -486 l0 -70 -240 0 -240 0 0 -130 0 -130 225 0 225 0 0 -70 0 -70
-225 0 -225 0 0 -152 0 -153 252 0 253 0 3 -68 3 -67 -341 0 -340 0 0 490 0
490 325 0 325 0 0 -70z m-903 -512 c-3 -8 -6 -5 -6 6 -1 11 2 17 5 13 3 -3 4
-12 1 -19z m-256 -15 c13 -16 12 -17 -3 -4 -17 13 -22 21 -14 21 2 0 10 -8 17
-17z m73 -11 c3 -5 -1 -9 -9 -9 -8 0 -12 4 -9 9 3 4 7 8 9 8 2 0 6 -4 9 -8z
m88 -21 c-2 -19 1 -31 10 -34 9 -3 9 -4 -2 -3 -16 1 -25 29 -16 52 9 23 13 16
8 -15z m95 -23 c-2 -13 -4 -5 -4 17 -1 22 1 32 4 23 2 -10 2 -28 0 -40z m-310
-5 c-3 -10 -5 -2 -5 17 0 19 2 27 5 18 2 -10 2 -26 0 -35z m20 0 c-3 -10 -5
-2 -5 17 0 19 2 27 5 18 2 -10 2 -26 0 -35z m120 -9 c-3 -3 -12 -4 -19 -1 -8
3 -5 6 6 6 11 1 17 -2 13 -5z m0 -30 c-3 -3 -12 -4 -19 -1 -8 3 -5 6 6 6 11 1
17 -2 13 -5z"/>
<path d="M931 944 c-20 -14 -23 -23 -18 -60 3 -29 1 -41 -6 -37 -6 4 -7 1 -3
-6 5 -7 10 -10 13 -7 2 2 13 -4 24 -15 10 -10 27 -19 37 -19 22 0 62 27 62 43
0 8 -2 9 -8 1 -14 -21 -47 -32 -69 -23 -38 14 -48 92 -15 117 22 17 47 15 67
-4 9 -9 18 -14 21 -11 3 2 -2 12 -11 21 -21 21 -64 21 -94 0z"/>
<path d="M1074 888 c-7 -11 -9 -34 -5 -67 3 -31 72 -18 85 15 16 41 -58 88
-80 52z m54 -10 c17 -17 15 -46 -5 -56 -27 -14 -43 -3 -43 27 0 41 22 55 48
29z"/>
</g>
</svg>
